<?xml version="1.0" encoding="utf-8" standalone="no"?>
<!DOCTYPE svg PUBLIC "-//W3C//DTD SVG 1.1//EN"
  "http://www.w3.org/Graphics/SVG/1.1/DTD/svg11.dtd">
<svg xmlns:xlink="http://www.w3.org/1999/xlink" width="531.393699pt" height="207.926375pt" viewBox="0 0 531.393699 207.926375" xmlns="http://www.w3.org/2000/svg" version="1.1">
 <metadata>
  <rdf:RDF xmlns:dc="http://purl.org/dc/elements/1.1/" xmlns:cc="http://creativecommons.org/ns#" xmlns:rdf="http://www.w3.org/1999/02/22-rdf-syntax-ns#">
   <cc:Work>
    <dc:type rdf:resource="http://purl.org/dc/dcmitype/StillImage"/>
    <dc:date>2026-07-17T10:51:45.168715</dc:date>
    <dc:format>image/svg+xml</dc:format>
    <dc:creator>
     <cc:Agent>
      <dc:title>Matplotlib v3.9.2, https://matplotlib.org/</dc:title>
     </cc:Agent>
    </dc:creator>
   </cc:Work>
  </rdf:RDF>
 </metadata>
 <defs>
  <style type="text/css">*{stroke-linejoin: round; stroke-linecap: butt}</style>
 </defs>
 <g id="figure_1">
  <g id="patch_1">
   <path d="M 0 207.926375 
L 531.393699 207.926375 
L 531.393699 0 
L 0 0 
z
" style="fill: #ffffff"/>
  </g>
  <g id="axes_1">
   <g id="patch_2">
    <path d="M 42.101868 190.534 
L 237.046406 190.534 
L 237.046406 71.302 
L 42.101868 71.302 
z
" style="fill: #ffffff"/>
   </g>
   <g id="patch_3">
    <path d="M 50.962984 190.534 
L 86.829403 190.534 
L 86.829403 83.064331 
L 50.962984 83.064331 
z
" clip-path="url(#p4035801b70)" style="fill: url(#h6d2ad67fd6); opacity: 0.72; stroke: #000000; stroke-width: 0.85; stroke-linejoin: miter"/>
   </g>
   <g id="patch_4">
    <path d="M 156.452452 190.534 
L 192.318871 190.534 
L 192.318871 83.12584 
L 156.452452 83.12584 
z
" clip-path="url(#p4035801b70)" style="fill: url(#h4ba2b0ed06); opacity: 0.72; stroke: #000000; stroke-width: 0.85; stroke-linejoin: miter"/>
   </g>
   <g id="patch_5">
    <path d="M 86.829403 190.534 
L 122.695822 190.534 
L 122.695822 82.833438 
L 86.829403 82.833438 
z
" clip-path="url(#p4035801b70)" style="fill: url(#h4d1d1b1e18); stroke: #000000; stroke-width: 0.85; stroke-linejoin: miter"/>
   </g>
   <g id="patch_6">
    <path d="M 192.318871 190.534 
L 228.185291 190.534 
L 228.185291 84.127227 
L 192.318871 84.127227 
z
" clip-path="url(#p4035801b70)" style="fill: url(#h3f80e0d5fd); stroke: #000000; stroke-width: 0.85; stroke-linejoin: miter"/>
   </g>
   <g id="matplotlib.axis_1">
    <g id="xtick_1">
     <g id="line2d_1">
      <defs>
       <path id="m3f0052dfe9" d="M 0 0 
L 0 3.5 
" style="stroke: #000000; stroke-width: 0.8"/>
      </defs>
      <g>
       <use xlink:href="#m3f0052dfe9" x="86.829403" y="190.534" style="stroke: #000000; stroke-width: 0.8"/>
      </g>
     </g>
     <g id="text_1">
      <text style="font: 10.8px 'DejaVu Sans', 'Bitstream Vera Sans', 'Computer Modern Sans Serif', 'Lucida Grande', 'Verdana', 'Geneva', 'Lucid', 'Arial', 'Helvetica', 'Avant Garde', sans-serif; text-anchor: middle" x="86.829403" y="204.240312" transform="rotate(-0 86.829403 204.240312)">L2</text>
     </g>
    </g>
    <g id="xtick_2">
     <g id="line2d_2">
      <g>
       <use xlink:href="#m3f0052dfe9" x="192.318871" y="190.534" style="stroke: #000000; stroke-width: 0.8"/>
      </g>
     </g>
     <g id="text_2">
      <text style="font: 10.8px 'DejaVu Sans', 'Bitstream Vera Sans', 'Computer Modern Sans Serif', 'Lucida Grande', 'Verdana', 'Geneva', 'Lucid', 'Arial', 'Helvetica', 'Avant Garde', sans-serif; text-anchor: middle" x="192.318871" y="204.240312" transform="rotate(-0 192.318871 204.240312)">L3</text>
     </g>
    </g>
   </g>
   <g id="matplotlib.axis_2">
    <g id="ytick_1">
     <g id="line2d_3">
      <path d="M 42.101868 190.534 
L 237.046406 190.534 
" clip-path="url(#p4035801b70)" style="fill: none; stroke: #b0b0b0; stroke-opacity: 0.25; stroke-width: 0.45; stroke-linecap: square"/>
     </g>
     <g id="line2d_4">
      <defs>
       <path id="m3b322a0661" d="M 0 0 
L -3.5 0 
" style="stroke: #000000; stroke-width: 0.8"/>
      </defs>
      <g>
       <use xlink:href="#m3b322a0661" x="42.101868" y="190.534" style="stroke: #000000; stroke-width: 0.8"/>
      </g>
     </g>
     <g id="text_3">
      <text style="font: 10.8px 'DejaVu Sans', 'Bitstream Vera Sans', 'Computer Modern Sans Serif', 'Lucida Grande', 'Verdana', 'Geneva', 'Lucid', 'Arial', 'Helvetica', 'Avant Garde', sans-serif; text-anchor: end" x="36.601868" y="194.637156" transform="rotate(-0 36.601868 194.637156)">0.0</text>
     </g>
    </g>
    <g id="ytick_2">
     <g id="line2d_5">
      <path d="M 42.101868 166.6876 
L 237.046406 166.6876 
" clip-path="url(#p4035801b70)" style="fill: none; stroke: #b0b0b0; stroke-opacity: 0.25; stroke-width: 0.45; stroke-linecap: square"/>
     </g>
     <g id="line2d_6">
      <g>
       <use xlink:href="#m3b322a0661" x="42.101868" y="166.6876" style="stroke: #000000; stroke-width: 0.8"/>
      </g>
     </g>
     <g id="text_4">
      <text style="font: 10.8px 'DejaVu Sans', 'Bitstream Vera Sans', 'Computer Modern Sans Serif', 'Lucida Grande', 'Verdana', 'Geneva', 'Lucid', 'Arial', 'Helvetica', 'Avant Garde', sans-serif; text-anchor: end" x="36.601868" y="170.790756" transform="rotate(-0 36.601868 170.790756)">0.2</text>
     </g>
    </g>
    <g id="ytick_3">
     <g id="line2d_7">
      <path d="M 42.101868 142.8412 
L 237.046406 142.8412 
" clip-path="url(#p4035801b70)" style="fill: none; stroke: #b0b0b0; stroke-opacity: 0.25; stroke-width: 0.45; stroke-linecap: square"/>
     </g>
     <g id="line2d_8">
      <g>
       <use xlink:href="#m3b322a0661" x="42.101868" y="142.8412" style="stroke: #000000; stroke-width: 0.8"/>
      </g>
     </g>
     <g id="text_5">
      <text style="font: 10.8px 'DejaVu Sans', 'Bitstream Vera Sans', 'Computer Modern Sans Serif', 'Lucida Grande', 'Verdana', 'Geneva', 'Lucid', 'Arial', 'Helvetica', 'Avant Garde', sans-serif; text-anchor: end" x="36.601868" y="146.944356" transform="rotate(-0 36.601868 146.944356)">0.4</text>
     </g>
    </g>
    <g id="ytick_4">
     <g id="line2d_9">
      <path d="M 42.101868 118.9948 
L 237.046406 118.9948 
" clip-path="url(#p4035801b70)" style="fill: none; stroke: #b0b0b0; stroke-opacity: 0.25; stroke-width: 0.45; stroke-linecap: square"/>
     </g>
     <g id="line2d_10">
      <g>
       <use xlink:href="#m3b322a0661" x="42.101868" y="118.9948" style="stroke: #000000; stroke-width: 0.8"/>
      </g>
     </g>
     <g id="text_6">
      <text style="font: 10.8px 'DejaVu Sans', 'Bitstream Vera Sans', 'Computer Modern Sans Serif', 'Lucida Grande', 'Verdana', 'Geneva', 'Lucid', 'Arial', 'Helvetica', 'Avant Garde', sans-serif; text-anchor: end" x="36.601868" y="123.097956" transform="rotate(-0 36.601868 123.097956)">0.6</text>
     </g>
    </g>
    <g id="ytick_5">
     <g id="line2d_11">
      <path d="M 42.101868 95.1484 
L 237.046406 95.1484 
" clip-path="url(#p4035801b70)" style="fill: none; stroke: #b0b0b0; stroke-opacity: 0.25; stroke-width: 0.45; stroke-linecap: square"/>
     </g>
     <g id="line2d_12">
      <g>
       <use xlink:href="#m3b322a0661" x="42.101868" y="95.1484" style="stroke: #000000; stroke-width: 0.8"/>
      </g>
     </g>
     <g id="text_7">
      <text style="font: 10.8px 'DejaVu Sans', 'Bitstream Vera Sans', 'Computer Modern Sans Serif', 'Lucida Grande', 'Verdana', 'Geneva', 'Lucid', 'Arial', 'Helvetica', 'Avant Garde', sans-serif; text-anchor: end" x="36.601868" y="99.251556" transform="rotate(-0 36.601868 99.251556)">0.8</text>
     </g>
    </g>
    <g id="ytick_6">
     <g id="line2d_13">
      <path d="M 42.101868 71.302 
L 237.046406 71.302 
" clip-path="url(#p4035801b70)" style="fill: none; stroke: #b0b0b0; stroke-opacity: 0.25; stroke-width: 0.45; stroke-linecap: square"/>
     </g>
     <g id="line2d_14">
      <g>
       <use xlink:href="#m3b322a0661" x="42.101868" y="71.302" style="stroke: #000000; stroke-width: 0.8"/>
      </g>
     </g>
     <g id="text_8">
      <text style="font: 10.8px 'DejaVu Sans', 'Bitstream Vera Sans', 'Computer Modern Sans Serif', 'Lucida Grande', 'Verdana', 'Geneva', 'Lucid', 'Arial', 'Helvetica', 'Avant Garde', sans-serif; text-anchor: end" x="36.601868" y="75.405156" transform="rotate(-0 36.601868 75.405156)">1.0</text>
     </g>
    </g>
    <g id="text_9">
     <text style="font: 11.8px 'DejaVu Sans', 'Bitstream Vera Sans', 'Computer Modern Sans Serif', 'Lucida Grande', 'Verdana', 'Geneva', 'Lucid', 'Arial', 'Helvetica', 'Avant Garde', sans-serif; text-anchor: middle" x="10.406156" y="130.918" transform="rotate(-90 10.406156 130.918)">Mean hit rate</text>
    </g>
   </g>
   <g id="patch_7">
    <path d="M 42.101868 190.534 
L 42.101868 71.302 
" style="fill: none; stroke: #000000; stroke-width: 0.8; stroke-linejoin: miter; stroke-linecap: square"/>
   </g>
   <g id="patch_8">
    <path d="M 42.101868 190.534 
L 237.046406 190.534 
" style="fill: none; stroke: #000000; stroke-width: 0.8; stroke-linejoin: miter; stroke-linecap: square"/>
   </g>
   <g id="text_10">
    <text style="font: 700 11.8px 'DejaVu Sans', 'Bitstream Vera Sans', 'Computer Modern Sans Serif', 'Lucida Grande', 'Verdana', 'Geneva', 'Lucid', 'Arial', 'Helvetica', 'Avant Garde', sans-serif; text-anchor: start" x="18.708524" y="65.271009" transform="rotate(-0 18.708524 65.271009)">(a)</text>
   </g>
  </g>
  <g id="axes_2">
   <g id="patch_9">
    <path d="M 311.12533 190.534 
L 506.069868 190.534 
L 506.069868 71.302 
L 311.12533 71.302 
z
" style="fill: #ffffff"/>
   </g>
   <g id="patch_10">
    <path d="M 319.986446 190.534 
L 355.852865 190.534 
L 355.852865 99.408495 
L 319.986446 99.408495 
z
" clip-path="url(#p6a00e093d1)" style="fill: url(#h6d2ad67fd6); opacity: 0.72; stroke: #000000; stroke-width: 0.85; stroke-linejoin: miter"/>
   </g>
   <g id="patch_11">
    <path d="M 425.475914 190.534 
L 461.342334 190.534 
L 461.342334 98.931974 
L 425.475914 98.931974 
z
" clip-path="url(#p6a00e093d1)" style="fill: url(#h4ba2b0ed06); opacity: 0.72; stroke: #000000; stroke-width: 0.85; stroke-linejoin: miter"/>
   </g>
   <g id="patch_12">
    <path d="M 355.852865 190.534 
L 391.719284 190.534 
L 391.719284 101.197282 
L 355.852865 101.197282 
z
" clip-path="url(#p6a00e093d1)" style="fill: url(#h4d1d1b1e18); stroke: #000000; stroke-width: 0.85; stroke-linejoin: miter"/>
   </g>
   <g id="patch_13">
    <path d="M 461.342334 190.534 
L 497.208753 190.534 
L 497.208753 91.174 
L 461.342334 91.174 
z
" clip-path="url(#p6a00e093d1)" style="fill: url(#h3f80e0d5fd); stroke: #000000; stroke-width: 0.85; stroke-linejoin: miter"/>
   </g>
   <g id="matplotlib.axis_3">
    <g id="xtick_3">
     <g id="line2d_15">
      <g>
       <use xlink:href="#m3f0052dfe9" x="355.852865" y="190.534" style="stroke: #000000; stroke-width: 0.8"/>
      </g>
     </g>
     <g id="text_11">
      <text style="font: 10.8px 'DejaVu Sans', 'Bitstream Vera Sans', 'Computer Modern Sans Serif', 'Lucida Grande', 'Verdana', 'Geneva', 'Lucid', 'Arial', 'Helvetica', 'Avant Garde', sans-serif; text-anchor: middle" x="355.852865" y="204.240312" transform="rotate(-0 355.852865 204.240312)">L2</text>
     </g>
    </g>
    <g id="xtick_4">
     <g id="line2d_16">
      <g>
       <use xlink:href="#m3f0052dfe9" x="461.342334" y="190.534" style="stroke: #000000; stroke-width: 0.8"/>
      </g>
     </g>
     <g id="text_12">
      <text style="font: 10.8px 'DejaVu Sans', 'Bitstream Vera Sans', 'Computer Modern Sans Serif', 'Lucida Grande', 'Verdana', 'Geneva', 'Lucid', 'Arial', 'Helvetica', 'Avant Garde', sans-serif; text-anchor: middle" x="461.342334" y="204.240312" transform="rotate(-0 461.342334 204.240312)">L3</text>
     </g>
    </g>
   </g>
   <g id="matplotlib.axis_4">
    <g id="ytick_7">
     <g id="line2d_17">
      <path d="M 311.12533 190.534 
L 506.069868 190.534 
" clip-path="url(#p6a00e093d1)" style="fill: none; stroke: #b0b0b0; stroke-opacity: 0.25; stroke-width: 0.45; stroke-linecap: square"/>
     </g>
     <g id="line2d_18">
      <g>
       <use xlink:href="#m3b322a0661" x="311.12533" y="190.534" style="stroke: #000000; stroke-width: 0.8"/>
      </g>
     </g>
     <g id="text_13">
      <text style="font: 10.8px 'DejaVu Sans', 'Bitstream Vera Sans', 'Computer Modern Sans Serif', 'Lucida Grande', 'Verdana', 'Geneva', 'Lucid', 'Arial', 'Helvetica', 'Avant Garde', sans-serif; text-anchor: end" x="305.62533" y="194.637156" transform="rotate(-0 305.62533 194.637156)">0.00</text>
     </g>
    </g>
    <g id="ytick_8">
     <g id="line2d_19">
      <path d="M 311.12533 144.348104 
L 506.069868 144.348104 
" clip-path="url(#p6a00e093d1)" style="fill: none; stroke: #b0b0b0; stroke-opacity: 0.25; stroke-width: 0.45; stroke-linecap: square"/>
     </g>
     <g id="line2d_20">
      <g>
       <use xlink:href="#m3b322a0661" x="311.12533" y="144.348104" style="stroke: #000000; stroke-width: 0.8"/>
      </g>
     </g>
     <g id="text_14">
      <text style="font: 10.8px 'DejaVu Sans', 'Bitstream Vera Sans', 'Computer Modern Sans Serif', 'Lucida Grande', 'Verdana', 'Geneva', 'Lucid', 'Arial', 'Helvetica', 'Avant Garde', sans-serif; text-anchor: end" x="305.62533" y="148.451261" transform="rotate(-0 305.62533 148.451261)">0.05</text>
     </g>
    </g>
    <g id="ytick_9">
     <g id="line2d_21">
      <path d="M 311.12533 98.162209 
L 506.069868 98.162209 
" clip-path="url(#p6a00e093d1)" style="fill: none; stroke: #b0b0b0; stroke-opacity: 0.25; stroke-width: 0.45; stroke-linecap: square"/>
     </g>
     <g id="line2d_22">
      <g>
       <use xlink:href="#m3b322a0661" x="311.12533" y="98.162209" style="stroke: #000000; stroke-width: 0.8"/>
      </g>
     </g>
     <g id="text_15">
      <text style="font: 10.8px 'DejaVu Sans', 'Bitstream Vera Sans', 'Computer Modern Sans Serif', 'Lucida Grande', 'Verdana', 'Geneva', 'Lucid', 'Arial', 'Helvetica', 'Avant Garde', sans-serif; text-anchor: end" x="305.62533" y="102.265365" transform="rotate(-0 305.62533 102.265365)">0.10</text>
     </g>
    </g>
    <g id="text_16">
     <text style="font: 11.8px 'DejaVu Sans', 'Bitstream Vera Sans', 'Computer Modern Sans Serif', 'Lucida Grande', 'Verdana', 'Geneva', 'Lucid', 'Arial', 'Helvetica', 'Avant Garde', sans-serif; text-anchor: middle" x="279.429618" y="130.918" transform="rotate(-90 279.429618 130.918)">Mean miss rate</text>
    </g>
   </g>
   <g id="patch_14">
    <path d="M 311.12533 190.534 
L 311.12533 71.302 
" style="fill: none; stroke: #000000; stroke-width: 0.8; stroke-linejoin: miter; stroke-linecap: square"/>
   </g>
   <g id="patch_15">
    <path d="M 311.12533 190.534 
L 506.069868 190.534 
" style="fill: none; stroke: #000000; stroke-width: 0.8; stroke-linejoin: miter; stroke-linecap: square"/>
   </g>
   <g id="text_17">
    <text style="font: 700 11.8px 'DejaVu Sans', 'Bitstream Vera Sans', 'Computer Modern Sans Serif', 'Lucida Grande', 'Verdana', 'Geneva', 'Lucid', 'Arial', 'Helvetica', 'Avant Garde', sans-serif; text-anchor: start" x="287.731986" y="65.271009" transform="rotate(-0 287.731986 65.271009)">(b)</text>
   </g>
  </g>
  <g id="legend_1">
   <g id="text_18">
    <text style="font: 11.8px 'DejaVu Sans', 'Bitstream Vera Sans', 'Computer Modern Sans Serif', 'Lucida Grande', 'Verdana', 'Geneva', 'Lucid', 'Arial', 'Helvetica', 'Avant Garde', sans-serif; text-anchor: start" x="105.795637" y="15.126156" transform="rotate(-0 105.795637 15.126156)">Cache level</text>
   </g>
   <g id="patch_16">
    <path d="M 90.568106 32.446344 
L 114.168106 32.446344 
L 114.168106 24.186344 
L 90.568106 24.186344 
z
" style="fill: #59a14f; stroke: #000000; stroke-linejoin: miter"/>
   </g>
   <g id="text_19">
    <text style="font: 11.8px 'DejaVu Sans', 'Bitstream Vera Sans', 'Computer Modern Sans Serif', 'Lucida Grande', 'Verdana', 'Geneva', 'Lucid', 'Arial', 'Helvetica', 'Avant Garde', sans-serif; text-anchor: start" x="119.478106" y="32.446344" transform="rotate(-0 119.478106 32.446344)">L2</text>
   </g>
   <g id="patch_17">
    <path d="M 146.540668 32.446344 
L 170.140668 32.446344 
L 170.140668 24.186344 
L 146.540668 24.186344 
z
" style="fill: #e15759; stroke: #000000; stroke-linejoin: miter"/>
   </g>
   <g id="text_20">
    <text style="font: 11.8px 'DejaVu Sans', 'Bitstream Vera Sans', 'Computer Modern Sans Serif', 'Lucida Grande', 'Verdana', 'Geneva', 'Lucid', 'Arial', 'Helvetica', 'Avant Garde', sans-serif; text-anchor: start" x="175.450668" y="32.446344" transform="rotate(-0 175.450668 32.446344)">L3</text>
   </g>
  </g>
  <g id="legend_2">
   <g id="text_21">
    <text style="font: 11.8px 'DejaVu Sans', 'Bitstream Vera Sans', 'Computer Modern Sans Serif', 'Lucida Grande', 'Verdana', 'Geneva', 'Lucid', 'Arial', 'Helvetica', 'Avant Garde', sans-serif; text-anchor: start" x="105.795637" y="15.126156" transform="rotate(-0 105.795637 15.126156)">Cache level</text>
   </g>
   <g id="patch_18">
    <path d="M 90.568106 32.446344 
L 114.168106 32.446344 
L 114.168106 24.186344 
L 90.568106 24.186344 
z
" style="fill: #59a14f; stroke: #000000; stroke-linejoin: miter"/>
   </g>
   <g id="text_22">
    <text style="font: 11.8px 'DejaVu Sans', 'Bitstream Vera Sans', 'Computer Modern Sans Serif', 'Lucida Grande', 'Verdana', 'Geneva', 'Lucid', 'Arial', 'Helvetica', 'Avant Garde', sans-serif; text-anchor: start" x="119.478106" y="32.446344" transform="rotate(-0 119.478106 32.446344)">L2</text>
   </g>
   <g id="patch_19">
    <path d="M 146.540668 32.446344 
L 170.140668 32.446344 
L 170.140668 24.186344 
L 146.540668 24.186344 
z
" style="fill: #e15759; stroke: #000000; stroke-linejoin: miter"/>
   </g>
   <g id="text_23">
    <text style="font: 11.8px 'DejaVu Sans', 'Bitstream Vera Sans', 'Computer Modern Sans Serif', 'Lucida Grande', 'Verdana', 'Geneva', 'Lucid', 'Arial', 'Helvetica', 'Avant Garde', sans-serif; text-anchor: start" x="175.450668" y="32.446344" transform="rotate(-0 175.450668 32.446344)">L3</text>
   </g>
  </g>
  <g id="legend_3">
   <g id="text_24">
    <text style="font: 11.8px 'DejaVu Sans', 'Bitstream Vera Sans', 'Computer Modern Sans Serif', 'Lucida Grande', 'Verdana', 'Geneva', 'Lucid', 'Arial', 'Helvetica', 'Avant Garde', sans-serif; text-anchor: start" x="355.066637" y="15.126156" transform="rotate(-0 355.066637 15.126156)">Policy</text>
   </g>
   <g id="patch_20">
    <path d="M 218.835637 32.446344 
L 242.435637 32.446344 
L 242.435637 24.186344 
L 218.835637 24.186344 
z
" style="fill: url(#hc5217c65a2); stroke: #000000; stroke-linejoin: miter"/>
   </g>
   <g id="text_25">
    <text style="font: 11.8px 'DejaVu Sans', 'Bitstream Vera Sans', 'Computer Modern Sans Serif', 'Lucida Grande', 'Verdana', 'Geneva', 'Lucid', 'Arial', 'Helvetica', 'Avant Garde', sans-serif; text-anchor: start" x="247.745637" y="32.446344" transform="rotate(-0 247.745637 32.446344)">Default Windows Medium</text>
   </g>
   <g id="patch_21">
    <path d="M 411.190387 32.446344 
L 434.790387 32.446344 
L 434.790387 24.186344 
L 411.190387 24.186344 
z
" style="fill: url(#h47a369c892); stroke: #000000; stroke-linejoin: miter"/>
   </g>
   <g id="text_26">
    <text style="font: 11.8px 'DejaVu Sans', 'Bitstream Vera Sans', 'Computer Modern Sans Serif', 'Lucida Grande', 'Verdana', 'Geneva', 'Lucid', 'Arial', 'Helvetica', 'Avant Garde', sans-serif; text-anchor: start" x="440.100387" y="32.446344" transform="rotate(-0 440.100387 32.446344)">HistGBDT-RPM</text>
   </g>
  </g>
 </g>
 <defs>
  <clipPath id="p4035801b70">
   <rect x="42.101868" y="71.302" width="194.944538" height="119.232"/>
  </clipPath>
  <clipPath id="p6a00e093d1">
   <rect x="311.12533" y="71.302" width="194.944538" height="119.232"/>
  </clipPath>
 </defs>
 <defs>
  <pattern id="h6d2ad67fd6" patternUnits="userSpaceOnUse" x="0" y="0" width="72" height="72">
   <rect x="0" y="0" width="73" height="73" fill="#59a14f"/>
   <path d="M -36 36 
L 36 -36 
M -32 40 
L 40 -32 
M -28 44 
L 44 -28 
M -24 48 
L 48 -24 
M -20 52 
L 52 -20 
M -16 56 
L 56 -16 
M -12 60 
L 60 -12 
M -8 64 
L 64 -8 
M -4 68 
L 68 -4 
M 0 72 
L 72 0 
M 4 76 
L 76 4 
M 8 80 
L 80 8 
M 12 84 
L 84 12 
M 16 88 
L 88 16 
M 20 92 
L 92 20 
M 24 96 
L 96 24 
M 28 100 
L 100 28 
M 32 104 
L 104 32 
M 36 108 
L 108 36 
" style="fill: #000000; stroke: #000000; stroke-width: 1.0; stroke-linecap: butt; stroke-linejoin: miter; stroke-opacity: 0.72"/>
  </pattern>
  <pattern id="h4ba2b0ed06" patternUnits="userSpaceOnUse" x="0" y="0" width="72" height="72">
   <rect x="0" y="0" width="73" height="73" fill="#e15759"/>
   <path d="M -36 36 
L 36 -36 
M -32 40 
L 40 -32 
M -28 44 
L 44 -28 
M -24 48 
L 48 -24 
M -20 52 
L 52 -20 
M -16 56 
L 56 -16 
M -12 60 
L 60 -12 
M -8 64 
L 64 -8 
M -4 68 
L 68 -4 
M 0 72 
L 72 0 
M 4 76 
L 76 4 
M 8 80 
L 80 8 
M 12 84 
L 84 12 
M 16 88 
L 88 16 
M 20 92 
L 92 20 
M 24 96 
L 96 24 
M 28 100 
L 100 28 
M 32 104 
L 104 32 
M 36 108 
L 108 36 
" style="fill: #000000; stroke: #000000; stroke-width: 1.0; stroke-linecap: butt; stroke-linejoin: miter; stroke-opacity: 0.72"/>
  </pattern>
  <pattern id="h4d1d1b1e18" patternUnits="userSpaceOnUse" x="0" y="0" width="72" height="72">
   <rect x="0" y="0" width="73" height="73" fill="#59a14f"/>
   <path d="M -36 36 
L 36 -36 
M -30 42 
L 42 -30 
M -24 48 
L 48 -24 
M -18 54 
L 54 -18 
M -12 60 
L 60 -12 
M -6 66 
L 66 -6 
M 0 72 
L 72 0 
M 6 78 
L 78 6 
M 12 84 
L 84 12 
M 18 90 
L 90 18 
M 24 96 
L 96 24 
M 30 102 
L 102 30 
M 36 108 
L 108 36 
M -36 36 
L 36 108 
M -30 30 
L 42 102 
M -24 24 
L 48 96 
M -18 18 
L 54 90 
M -12 12 
L 60 84 
M -6 6 
L 66 78 
M 0 0 
L 72 72 
M 6 -6 
L 78 66 
M 12 -12 
L 84 60 
M 18 -18 
L 90 54 
M 24 -24 
L 96 48 
M 30 -30 
L 102 42 
M 36 -36 
L 108 36 
" style="fill: #000000; stroke: #000000; stroke-width: 1.0; stroke-linecap: butt; stroke-linejoin: miter"/>
  </pattern>
  <pattern id="h3f80e0d5fd" patternUnits="userSpaceOnUse" x="0" y="0" width="72" height="72">
   <rect x="0" y="0" width="73" height="73" fill="#e15759"/>
   <path d="M -36 36 
L 36 -36 
M -30 42 
L 42 -30 
M -24 48 
L 48 -24 
M -18 54 
L 54 -18 
M -12 60 
L 60 -12 
M -6 66 
L 66 -6 
M 0 72 
L 72 0 
M 6 78 
L 78 6 
M 12 84 
L 84 12 
M 18 90 
L 90 18 
M 24 96 
L 96 24 
M 30 102 
L 102 30 
M 36 108 
L 108 36 
M -36 36 
L 36 108 
M -30 30 
L 42 102 
M -24 24 
L 48 96 
M -18 18 
L 54 90 
M -12 12 
L 60 84 
M -6 6 
L 66 78 
M 0 0 
L 72 72 
M 6 -6 
L 78 66 
M 12 -12 
L 84 60 
M 18 -18 
L 90 54 
M 24 -24 
L 96 48 
M 30 -30 
L 102 42 
M 36 -36 
L 108 36 
" style="fill: #000000; stroke: #000000; stroke-width: 1.0; stroke-linecap: butt; stroke-linejoin: miter"/>
  </pattern>
  <pattern id="hc5217c65a2" patternUnits="userSpaceOnUse" x="0" y="0" width="72" height="72">
   <rect x="0" y="0" width="73" height="73" fill="#ffffff"/>
   <path d="M -36 36 
L 36 -36 
M -32 40 
L 40 -32 
M -28 44 
L 44 -28 
M -24 48 
L 48 -24 
M -20 52 
L 52 -20 
M -16 56 
L 56 -16 
M -12 60 
L 60 -12 
M -8 64 
L 64 -8 
M -4 68 
L 68 -4 
M 0 72 
L 72 0 
M 4 76 
L 76 4 
M 8 80 
L 80 8 
M 12 84 
L 84 12 
M 16 88 
L 88 16 
M 20 92 
L 92 20 
M 24 96 
L 96 24 
M 28 100 
L 100 28 
M 32 104 
L 104 32 
M 36 108 
L 108 36 
" style="fill: #000000; stroke: #000000; stroke-width: 1.0; stroke-linecap: butt; stroke-linejoin: miter"/>
  </pattern>
  <pattern id="h47a369c892" patternUnits="userSpaceOnUse" x="0" y="0" width="72" height="72">
   <rect x="0" y="0" width="73" height="73" fill="#ffffff"/>
   <path d="M -36 36 
L 36 -36 
M -30 42 
L 42 -30 
M -24 48 
L 48 -24 
M -18 54 
L 54 -18 
M -12 60 
L 60 -12 
M -6 66 
L 66 -6 
M 0 72 
L 72 0 
M 6 78 
L 78 6 
M 12 84 
L 84 12 
M 18 90 
L 90 18 
M 24 96 
L 96 24 
M 30 102 
L 102 30 
M 36 108 
L 108 36 
M -36 36 
L 36 108 
M -30 30 
L 42 102 
M -24 24 
L 48 96 
M -18 18 
L 54 90 
M -12 12 
L 60 84 
M -6 6 
L 66 78 
M 0 0 
L 72 72 
M 6 -6 
L 78 66 
M 12 -12 
L 84 60 
M 18 -18 
L 90 54 
M 24 -24 
L 96 48 
M 30 -30 
L 102 42 
M 36 -36 
L 108 36 
" style="fill: #000000; stroke: #000000; stroke-width: 1.0; stroke-linecap: butt; stroke-linejoin: miter"/>
  </pattern>
 </defs>
</svg>
